# xmcd
#
# Track frame offsets:
#	150
#	19839
#	43593
#	68249
#	93703
#	112463
#	127350
#	148551
#	164794
#	171497
#	190495
#	204792
#	232481
#	250074
#
# Disc length: 3729 seconds
#
# Revision: 0
# Processed by: cddbd v1.5.1PL2 Copyright (c) Steve Scherf et al.
# Submitted via: dBpowerAMP V4.0
#
DISCID=e50e8f0e
DTITLE=Popa Chubby - Stealing The Devil's Guitar
DYEAR=2006
DGENRE=Blues Rock
TTITLE0=Slide Devil Man Slide
TTITLE1=Smuggler's Game
TTITLE2=Why I Can't Have You
TTITLE3=Right on
TTITLE4=In This World
TTITLE5=Walking With Amar
TTITLE6=Stoned Again
TTITLE7=Young Guns
TTITLE8=Buffalo Chips
TTITLE9=Bold As Love
TTITLE10=Long Deep Hard And Wide
TTITLE11=Virgil And Smokey
TTITLE12=Preacher Man
TTITLE13=The Devil's Guitar
EXTD=
EXTT0=
EXTT1=
EXTT2=
EXTT3=
EXTT4=
EXTT5=
EXTT6=
EXTT7=
EXTT8=
EXTT9=
EXTT10=
EXTT11=
EXTT12=
EXTT13=
PLAYORDER=
